Coordinates
version=1
nRows=54
nColumns=12
inDegrees=yes

Units are S.I. units (second, meters, Newtons, ...)
Angles are in degrees

endheader
time	SC_y	SC_z	SC_x	AC_y	AC_z	AC_x	GH_y	GH_z	GH_yy	EL_x	PS_y
       0.0              -49.66          38.69          54.55           40.1          1.628          18.26         -87.28          54.67          15.41          23.54          111.9
   0.04379              -49.65          38.69          54.54           40.1          1.626          18.25         -87.28          54.65          15.41          23.54          111.9
   0.08757              -49.65          38.68          54.54           40.1          1.624          18.25         -87.27          54.64           15.4          23.54          111.9
    0.1314              -49.64          38.68          54.53           40.1          1.622          18.24         -87.26          54.63          15.39          23.54          111.9
    0.1751              -49.64          38.67          54.52           40.1           1.62          18.24         -87.25          54.62          15.39          23.55          111.9
    0.2189              -49.63          38.67          54.51           40.1          1.618          18.23         -87.25           54.6          15.38          23.55          111.9
    0.2627              -49.62          38.66           54.5           40.1          1.615          18.22         -87.24          54.59          15.37          23.55          111.8
    0.3065              -49.62          38.66          54.49          40.11          1.612          18.22         -87.23          54.57          15.36          23.55          111.8
    0.3503              -49.61          38.65          54.48          40.11          1.609          18.21         -87.22          54.56          15.35          23.55          111.8
    0.3941               -49.6          38.64          54.47          40.11          1.606           18.2         -87.21          54.54          15.34          23.55          111.8
    0.4379              -49.59          38.64          54.45          40.11          1.603           18.2          -87.2          54.52          15.33          23.55          111.8
    0.4817              -49.58          38.63          54.44          40.11          1.599          18.19         -87.19           54.5          15.32          23.55          111.7
    0.5254              -49.57          38.62          54.43          40.12          1.596          18.18         -87.17          54.48          15.31          23.56          111.7
    0.5692              -49.56          38.61          54.41          40.12          1.591          18.17         -87.16          54.45          15.29          23.56          111.7
     0.613              -49.55           38.6          54.39          40.12          1.587          18.16         -87.15          54.42          15.28          23.56          111.7
    0.6568              -49.53          38.59          54.37          40.12          1.582          18.14         -87.13           54.4          15.26          23.56          111.6
    0.7006              -49.52          38.58          54.35          40.13          1.577          18.13         -87.11          54.36          15.24          23.56          111.6
    0.7444               -49.5          38.57          54.33          40.13          1.571          18.12         -87.09          54.33          15.22          23.57          111.6
    0.7882              -49.49          38.55          54.31          40.13          1.564           18.1         -87.07          54.29           15.2          23.57          111.5
     0.832              -49.47          38.54          54.28          40.14          1.557          18.09         -87.05          54.25          15.18          23.57          111.5
    0.8757              -49.45          38.52          54.25          40.14           1.55          18.07         -87.03          54.21          15.16          23.58          111.4
    0.9195              -49.43           38.5          54.22          40.15          1.541          18.05          -87.0          54.16          15.13          23.58          111.4
    0.9633               -49.4          38.48          54.18          40.15          1.532          18.03         -86.97          54.11           15.1          23.58          111.3
     1.007              -49.37          38.46          54.14          40.16          1.522           18.0         -86.93          54.05          15.06          23.59          111.3
     1.051              -49.34          38.43           54.1          40.16           1.51          17.97          -86.9          53.98          15.03          23.59          111.2
     1.095              -49.31           38.4          54.05          40.17          1.498          17.94         -86.86           53.9          14.99           23.6          111.1
     1.138              -49.27          38.37           54.0          40.18          1.483          17.91         -86.81          53.82          14.94           23.6          111.0
     1.182              -49.23          38.34          53.94          40.19          1.467          17.87         -86.76          53.73          14.89          23.61          110.9
     1.226              -49.18           38.3          53.87           40.2          1.449          17.83          -86.7          53.62          14.83          23.62          110.8
      1.27              -49.12          38.25          53.79          40.21          1.429          17.78         -86.63           53.5          14.76          23.63          110.7
     1.314              -49.06           38.2           53.7          40.23          1.405          17.72         -86.55          53.36          14.68          23.64          110.5
     1.357              -48.99          38.14           53.6          40.24          1.378          17.66         -86.47           53.2          14.59          23.65          110.4
     1.401              -48.91          38.07          53.48          40.26          1.347          17.58         -86.36          53.02          14.49          23.66          110.2
     1.445              -48.81          37.99          53.34          40.28          1.311          17.49         -86.25          52.81          14.37          23.68          110.0
     1.489               -48.7           37.9          53.18          40.31          1.268          17.39         -86.11          52.56          14.23           23.7          109.7
     1.533              -48.56          37.79          52.99          40.34          1.218          17.27         -85.94          52.27          14.07          23.72          109.4
     1.576               -48.4          37.65          52.76          40.37          1.159          17.13         -85.75          51.92          13.88          23.74          109.0
      1.62              -48.21           37.5          52.49          40.41          1.088          16.96         -85.52          51.51          13.64          23.77          108.6
     1.664              -47.98          37.31          52.16          40.46          1.002          16.75         -85.24           51.0          13.36          23.81          108.0
     1.708               -47.7          37.07          51.76          40.52         0.8965           16.5         -84.89          50.39          13.02          23.86          107.4
     1.751              -47.36          36.79          51.26           40.6         0.7667          16.19         -84.47          49.63          12.59          23.91          106.6
     1.795              -46.92          36.43          50.65           40.7         0.6048           15.8         -83.94          48.68          12.06          23.98          105.6
     1.839              -46.38          35.98          49.87          40.81         0.4009          15.31         -83.28          47.49          11.39          24.07          104.3
     1.883              -45.69           35.4          48.88          40.97         0.1417          14.69         -82.43          45.98          10.54          24.18          102.7
     1.927               -44.8          34.67          47.61          41.16        -0.1901          13.89         -81.35          44.04          9.454          24.32          100.7
      1.97              -43.66          33.73          45.99          41.41        -0.6158          12.87         -79.96          41.55          8.059           24.5          98.02
     2.014              -42.21          32.53          43.91          41.73          -1.16          11.57         -78.18          38.37          6.277          24.74          94.65
     2.058              -40.38          31.01          41.31          42.13         -1.844          9.924         -75.95          34.37          4.036          25.03          90.41
     2.102              -38.15          29.17          38.13          42.62         -2.677          7.924         -73.23           29.5          1.305          25.39          85.25
     2.146              -35.57          27.03          34.44          43.18         -3.643          5.606         -70.08          23.85         -1.861           25.8          79.26
     2.189              -32.78          24.72          30.45           43.8         -4.689          3.096         -66.66          17.74         -5.288          26.25          72.78
     2.233              -29.98          22.41          26.46          44.41         -5.735         0.5855         -63.25          11.63         -8.716           26.7           66.3
     2.277               -27.4          20.27          22.77          44.97         -6.701         -1.733         -60.09          5.979         -11.88          27.11          60.32
     2.321              -25.17          18.43           19.6          45.46         -7.534         -3.733         -57.37          1.108         -14.61          27.47          55.16
